<svg width="151" height="92" viewBox="0 0 151 92" fill="none" xmlns="http://www.w3.org/2000/svg">
<path d="M142.96 24.0924C138.244 18.6891 131.721 14.0129 123.547 10.2208C110.187 3.99237 93.132 0.553955 75.5076 0.553955C57.8833 0.553955 40.8091 3.97272 27.4484 10.2012C19.2748 14.0129 12.7516 18.6891 8.03607 24.0924C2.77038 30.1243 0 36.9422 0 43.8191C0 50.6959 2.79003 57.5138 8.03607 63.5457C10.8261 66.7484 14.2842 69.6956 18.3317 72.3677H132.664C136.711 69.6956 140.15 66.7484 142.96 63.5457C148.206 57.5138 150.996 50.6959 150.996 43.8191C150.996 36.9422 148.225 30.1243 142.96 24.0924Z" fill="#ECC305"/>
<path d="M140.563 25.3303C135.985 20.2807 129.678 15.9385 121.779 12.3822C108.909 6.58598 92.4837 3.40298 75.5077 3.40298C58.5318 3.40298 42.1059 6.58598 29.2364 12.3822C21.3379 15.9385 15.0112 20.2807 10.4529 25.3303C5.32471 31.0086 2.59363 37.4335 2.59363 43.9174C2.59363 50.4012 5.30506 56.8262 10.4529 62.5045C15.0112 67.554 21.3379 71.9159 29.2364 75.4525C42.1059 81.2487 58.5318 84.4317 75.5077 84.4317C92.464 84.4317 108.909 81.2487 121.779 75.4525C129.678 71.8962 136.004 67.5344 140.563 62.5045C145.691 56.8262 148.402 50.4012 148.402 43.9174C148.402 37.4335 145.691 31.0086 140.563 25.3303Z" fill="#E13334"/>
<path d="M138.892 25.8018C134.432 20.8898 128.282 16.6458 120.58 13.1681C108.045 7.52911 92.0316 4.42471 75.4879 4.42471C58.9442 4.42471 42.9311 7.52911 30.3956 13.1681C22.6935 16.6262 16.5437 20.8898 12.0835 25.8018C7.07327 31.323 4.44043 37.5907 4.44043 43.9174C4.44043 50.2441 7.09292 56.5118 12.0835 62.0329C16.524 66.9449 22.6935 71.1889 30.3956 74.6666C42.9311 80.3056 58.9442 83.41 75.4879 83.41C92.0316 83.41 108.045 80.3056 120.58 74.6666C128.263 71.2086 134.432 66.9646 138.892 62.0329C143.903 56.4922 146.535 50.2441 146.535 43.9174C146.555 37.5907 143.903 31.3426 138.892 25.8018Z" fill="white"/>
<path d="M137.419 26.4306C133.096 21.6561 127.104 17.53 119.598 14.1505C107.338 8.62938 91.6781 5.60358 75.488 5.60358C59.298 5.60358 43.6385 8.62938 31.3781 14.1505C23.8921 17.5103 17.8995 21.6364 13.5769 26.4306C8.74346 31.7552 6.18921 37.8068 6.18921 43.8781C6.18921 49.969 8.74346 56.0009 13.5769 61.3452C17.8995 66.1197 23.8921 70.2458 31.3977 73.6253C43.6581 79.1464 59.3177 82.1722 75.5077 82.1722C91.6781 82.1722 107.357 79.1267 119.618 73.6253C127.104 70.2458 133.116 66.1197 137.438 61.3452C142.272 56.0009 144.826 49.969 144.826 43.8781C144.807 37.7872 142.252 31.7552 137.419 26.4306Z" fill="url(#paint0_linear_119_6)"/>
<path d="M141.407 68.4382L139.423 68.7525C139.305 68.7722 128.518 70.4619 111.641 70.4619C100.284 70.4619 88.7899 69.6956 77.5315 68.222C68.0022 66.9646 58.7283 66.3162 50.0045 66.3162C25.9356 66.3162 13.6555 71.0907 13.1447 71.2871L11.9069 71.7783L13.0268 88.1845L13.2626 91.4461L15.9347 89.5402C15.9544 89.5402 17.9978 88.1059 23.2045 86.6912C28.0183 85.3945 36.5849 83.8423 50.0831 83.8423C58.355 83.8423 67.6092 84.4121 77.6101 85.5516C92.916 87.3003 106.434 88.1845 117.771 88.1845C134.845 88.1845 140.995 86.1607 141.25 86.0821L142.586 85.6302L141.407 68.4382Z" fill="#ECC305"/>
<path d="M13.8322 72.9965L14.8735 88.0666C14.8735 88.0666 28.3325 78.105 77.826 83.744C126.18 89.2455 140.68 84.3531 140.68 84.3531L139.718 70.5602C139.718 70.5602 113.31 74.8042 77.2955 70.0493C35.2682 64.4693 13.8322 72.9965 13.8322 72.9965Z" fill="url(#paint1_radial_119_6)"/>
<path d="M19.6285 81.681L17.7227 75.8848L19.098 75.4329L21.0039 81.2291L19.6285 81.681Z" fill="#131711"/>
<path d="M25.6605 80.0895L23.4599 76.7493H23.4402L24.2261 80.3842L22.9687 80.6396L21.7308 74.6666L23.283 74.3522L25.4836 77.7317H25.5033L24.7173 74.0575L25.9355 73.8021L27.1734 79.7751L25.6605 80.0895Z" fill="#131711"/>
<path d="M33.284 75.9044C33.343 76.3563 33.343 76.7886 33.284 77.1619C33.2251 77.5352 33.1072 77.8889 32.9303 78.1836C32.7535 78.4587 32.4981 78.6944 32.1837 78.8909C31.8693 79.0678 31.496 79.1857 31.0441 79.2446L29.2562 79.4607L28.5292 73.3895L30.3171 73.1733C30.7691 73.1144 31.162 73.134 31.5157 73.2519C31.8694 73.3502 32.1641 73.527 32.3998 73.7628C32.6553 73.9985 32.8518 74.2933 32.9893 74.6666C33.1072 75.0203 33.2251 75.4329 33.284 75.9044ZM31.8301 76.0813C31.7515 75.4722 31.5943 75.0202 31.3388 74.7452C31.0834 74.4505 30.7887 74.3326 30.435 74.3719L30.0814 74.4112L30.5333 78.0854L30.8869 78.0461C31.2406 78.0068 31.496 77.8103 31.6729 77.4763C31.8497 77.1226 31.9086 76.6707 31.8301 76.0813Z" fill="#131711"/>
<path d="M39.4926 77.2012C39.4336 77.4959 39.3157 77.771 39.1586 77.9871C39.0014 78.2229 38.7852 78.3997 38.5102 78.5373C38.2548 78.6748 37.9207 78.773 37.5278 78.7927C37.1348 78.8123 36.8008 78.773 36.5257 78.6552C36.2506 78.5373 36.0149 78.3801 35.838 78.1836C35.6612 77.9871 35.5237 77.7317 35.4254 77.437C35.3272 77.1422 35.2682 76.8279 35.2486 76.4939L35.0128 72.6625L36.4668 72.5642L36.7026 76.2777C36.7026 76.4546 36.7418 76.6117 36.7615 76.7493C36.8008 76.9065 36.8401 77.0244 36.899 77.1226C36.958 77.2208 37.0366 77.2994 37.1348 77.3584C37.233 77.4173 37.3509 77.437 37.4885 77.437C37.626 77.437 37.7439 77.378 37.8225 77.3191C37.9011 77.2405 37.9797 77.1619 38.019 77.044C38.0583 76.9261 38.0976 76.8082 38.1172 76.651C38.1369 76.4939 38.1369 76.3367 38.1172 76.1598L37.8814 72.4464L39.3157 72.3481L39.5515 76.1795C39.5712 76.5921 39.5515 76.9065 39.4926 77.2012Z" fill="#131711"/>
<path d="M44.2671 73.7431C44.1493 73.6252 44.0314 73.5466 43.8938 73.4681C43.7563 73.4091 43.5991 73.3698 43.4419 73.3895C43.2847 73.3895 43.1276 73.4484 43.0097 73.5466C42.8721 73.6449 42.8132 73.8021 42.8328 74.0379C42.8328 74.2343 42.9114 74.3719 43.049 74.4701C43.1865 74.5683 43.383 74.6862 43.6384 74.8041C43.7759 74.8631 43.9331 74.9417 44.0903 75.0399C44.2475 75.1381 44.4047 75.2364 44.5422 75.3739C44.6798 75.5115 44.7976 75.6686 44.8762 75.8651C44.9745 76.0616 45.0138 76.2777 45.0334 76.5528C45.0334 76.8868 44.9941 77.1619 44.8959 77.4173C44.7976 77.6727 44.6601 77.8692 44.4636 78.0461C44.2868 78.2032 44.0707 78.3408 43.8349 78.439C43.5991 78.5176 43.3437 78.5766 43.0883 78.5766C42.7149 78.5766 42.3613 78.5176 42.0469 78.3997C41.7325 78.2622 41.4771 78.1247 41.2806 77.9282L41.988 76.8868C42.1255 77.0244 42.2827 77.1226 42.4792 77.2012C42.656 77.2798 42.8525 77.3191 43.0293 77.3191C43.2062 77.3191 43.3437 77.2601 43.4616 77.1422C43.5795 77.0244 43.6384 76.8672 43.6384 76.6707C43.6384 76.4742 43.5598 76.317 43.4026 76.1991C43.2454 76.0813 43.049 75.9634 42.7542 75.8258C42.5774 75.7472 42.4202 75.6686 42.263 75.5704C42.1059 75.4722 41.9683 75.3543 41.8504 75.2167C41.7325 75.0792 41.6343 74.922 41.5754 74.7452C41.4968 74.5487 41.4575 74.3522 41.4575 74.0968C41.4575 73.7431 41.4968 73.4681 41.6147 73.2126C41.7325 72.9572 41.8701 72.7607 42.0666 72.6035C42.2434 72.4464 42.4595 72.3088 42.6953 72.2302C42.9311 72.1516 43.1472 72.1123 43.383 72.1123C43.7367 72.1123 44.051 72.1516 44.3261 72.2499C44.6012 72.3481 44.8369 72.5053 45.0334 72.6821L44.2671 73.7431Z" fill="#131711"/>
<path d="M48.904 73.4484L48.8843 78.3801H47.4697L47.509 73.4484H46.3497V72.2695L50.1025 72.2892V73.4681L48.904 73.4484Z" fill="#131711"/>
<path d="M54.3073 78.498L53.541 76.0419L53.1284 76.0223L53.0498 78.4587L51.6548 78.3997L51.8513 72.3088L53.8947 72.3874C54.5038 72.407 54.9753 72.5642 55.3093 72.8983C55.6433 73.2126 55.8005 73.6842 55.7809 74.2933C55.7809 74.5094 55.7416 74.7255 55.6826 74.9024C55.6237 75.0792 55.5451 75.2167 55.4665 75.3543C55.3683 75.4722 55.27 75.5704 55.1718 75.649C55.0539 75.7276 54.9557 75.7865 54.8574 75.8062L55.8595 78.5569L54.3073 78.498ZM54.3466 74.3129C54.3466 74.1557 54.3269 74.0182 54.2876 73.92C54.2483 73.8217 54.1894 73.7431 54.1108 73.6842C54.0322 73.6252 53.9733 73.5859 53.875 73.5663C53.7964 73.5466 53.6982 73.527 53.6196 73.527L53.1677 73.5073L53.1087 75.0595L53.5214 75.0792C53.7178 75.0792 53.8947 75.0399 54.0715 74.922C54.2483 74.7845 54.3466 74.588 54.3466 74.3129Z" fill="#131711"/>
<path d="M57.5493 78.6355L57.8833 72.5446L59.3373 72.6232L59.0229 78.7141L57.5493 78.6355Z" fill="#131711"/>
<path d="M64.0135 79.0481L63.8367 77.9085L62.4024 77.8103L62.0683 78.9106L60.634 78.8123L62.6185 72.8393L64.4261 72.9572L65.5264 79.166L64.0135 79.0481ZM63.4044 74.2147H63.3651L62.6381 76.7689L63.7188 76.8475L63.4044 74.2147Z" fill="#131711"/>
<path d="M67.1178 79.2839L67.6679 73.2126L69.1219 73.3502L68.6896 78.164L70.3794 78.3212L70.2615 79.5983L67.1178 79.2839Z" fill="#131711"/>
<path d="M79.3391 77.4959C79.2801 77.9478 79.1819 78.3604 79.0443 78.7141C78.9068 79.0678 78.7103 79.3625 78.4549 79.5983C78.2191 79.834 77.9244 80.0109 77.5707 80.1288C77.2171 80.227 76.8241 80.2663 76.3722 80.2073L74.5842 80.0109L75.2719 73.9396L77.0599 74.1361C77.5118 74.195 77.8851 74.3129 78.2191 74.4897C78.5335 74.6666 78.7693 74.9024 78.9658 75.1971C79.1426 75.4918 79.2801 75.8258 79.3391 76.2188C79.398 76.6117 79.398 77.0244 79.3391 77.4959ZM77.9048 77.3387C77.9637 76.7296 77.9244 76.2581 77.7279 75.9241C77.5511 75.59 77.276 75.3936 76.942 75.3739L76.5883 75.3346L76.1757 79.0088L76.5294 79.0481C76.8831 79.0874 77.1778 78.9695 77.4332 78.6748C77.669 78.3604 77.8458 77.9282 77.9048 77.3387Z" fill="#131711"/>
<path d="M81.068 80.8164L81.5395 74.7255L84.6047 74.9809L84.5064 76.1991L82.8167 76.0616L82.7381 77.2405L84.2903 77.3584L84.192 78.498L82.6398 78.3801L82.5416 79.6768L84.3492 79.8144L84.251 81.0522L81.068 80.8164Z" fill="#131711"/>
<path d="M91.6779 81.5827L91.5011 80.4628L90.0668 80.3645L89.7328 81.4648L88.2985 81.3666L90.2436 75.3739L92.0512 75.4918L93.1908 81.681L91.6779 81.5827ZM91.0296 76.7493H90.9903L90.2829 79.3036L91.3636 79.3821L91.0296 76.7493Z" fill="#131711"/>
<path d="M94.802 81.7595L95.1557 75.6686L96.6096 75.7472L96.3346 80.561L98.0243 80.6593L97.9457 81.9364L94.802 81.7595Z" fill="#131711"/>
<path d="M99.6747 82.0346L99.9694 75.9437L101.423 76.0223L101.109 82.1132L99.6747 82.0346Z" fill="#131711"/>
<path d="M107.691 82.3883L107.907 78.2032H107.888L106.65 82.349L105.628 82.3097L104.764 78.0854H104.744L104.626 82.2704L103.329 82.2115L103.565 76.1205L105.373 76.1991L106.237 80.1681H106.277L107.436 76.2777L109.361 76.3563L109.126 82.4472L107.691 82.3883Z" fill="#131711"/>
<path d="M111.307 82.5062L111.464 76.4153L114.548 76.4939L114.509 77.7121L112.8 77.6728L112.78 78.8713L114.352 78.9106L114.332 80.0502L112.76 80.0109L112.721 81.3273L114.529 81.3666L114.49 82.6044L111.307 82.5062Z" fill="#131711"/>
<path d="M119.146 82.6633L117.712 78.9302H117.692V82.6437L116.415 82.6241L116.474 76.5331H118.065L119.5 80.3252H119.519V76.5528L120.757 76.5724L120.698 82.683L119.146 82.6633Z" fill="#131711"/>
<path d="M124.805 77.712L124.864 82.6437L123.449 82.6633L123.39 77.7317L122.211 77.7513L122.192 76.5724L125.944 76.5331L125.964 77.712H124.805Z" fill="#131711"/>
<path d="M132.055 79.3035C132.075 79.7947 132.055 80.227 131.957 80.6396C131.858 81.0522 131.721 81.3862 131.524 81.681C131.328 81.9757 131.072 82.1918 130.797 82.3686C130.503 82.5455 130.169 82.6241 129.776 82.6437C129.402 82.6634 129.068 82.6044 128.754 82.4669C128.44 82.3293 128.184 82.1132 127.948 81.8578C127.732 81.5827 127.555 81.2487 127.418 80.8557C127.28 80.4628 127.202 80.0305 127.182 79.5393C127.163 79.0481 127.202 78.6158 127.3 78.2229C127.398 77.8299 127.536 77.4763 127.732 77.2012C127.929 76.9065 128.184 76.6707 128.479 76.5135C128.774 76.3367 129.108 76.2581 129.501 76.2384C129.874 76.2188 130.228 76.2777 130.542 76.4153C130.856 76.5528 131.112 76.7493 131.348 77.0243C131.564 77.2994 131.741 77.6138 131.878 78.0068C131.976 78.3801 132.035 78.8123 132.055 79.3035ZM130.601 79.3821C130.581 79.107 130.562 78.8713 130.503 78.6551C130.444 78.439 130.385 78.2425 130.287 78.0657C130.188 77.9085 130.09 77.771 129.972 77.6924C129.854 77.5941 129.697 77.5549 129.54 77.5745C129.383 77.5745 129.245 77.6334 129.127 77.7317C129.009 77.8299 128.911 77.9675 128.833 78.1443C128.754 78.3211 128.715 78.5176 128.675 78.7534C128.656 78.9892 128.636 79.2249 128.656 79.5C128.675 79.7554 128.695 80.0109 128.754 80.2466C128.813 80.4824 128.872 80.6592 128.97 80.8361C129.049 80.9933 129.167 81.1308 129.304 81.229C129.422 81.3076 129.579 81.3666 129.736 81.3469C129.894 81.3469 130.031 81.288 130.149 81.1701C130.267 81.0719 130.365 80.9343 130.424 80.7575C130.503 80.6003 130.542 80.3842 130.581 80.168C130.601 79.8733 130.601 79.6375 130.601 79.3821Z" fill="#131711"/>
<path d="M136.476 77.2405C136.358 77.1423 136.22 77.0637 136.063 77.0047C135.906 76.9458 135.768 76.9458 135.611 76.9654C135.454 76.9851 135.316 77.0637 135.199 77.1619C135.081 77.2798 135.041 77.437 135.061 77.6728C135.081 77.8692 135.179 78.0068 135.316 78.0854C135.454 78.1836 135.67 78.2622 135.945 78.3605C136.102 78.4194 136.26 78.4783 136.436 78.5373C136.613 78.6159 136.77 78.7141 136.908 78.832C137.065 78.9499 137.203 79.1071 137.301 79.2839C137.419 79.4607 137.478 79.6769 137.517 79.9519C137.556 80.286 137.537 80.5807 137.458 80.8361C137.38 81.0915 137.262 81.3273 137.104 81.5041C136.947 81.681 136.751 81.8382 136.515 81.956C136.279 82.0739 136.043 82.1329 135.788 82.1722C135.415 82.2115 135.061 82.1918 134.727 82.0936C134.393 81.9953 134.118 81.8578 133.902 81.7006L134.511 80.5807C134.668 80.6986 134.845 80.7968 135.022 80.8558C135.218 80.9147 135.395 80.9344 135.592 80.9147C135.768 80.8951 135.906 80.8165 136.004 80.6986C136.102 80.5807 136.161 80.4235 136.122 80.227C136.102 80.0305 136.004 79.8733 135.847 79.7751C135.69 79.6769 135.454 79.5786 135.179 79.4804C135.002 79.4214 134.825 79.3625 134.648 79.2839C134.491 79.2053 134.334 79.1071 134.197 78.9892C134.059 78.8713 133.961 78.7141 133.863 78.5373C133.784 78.3604 133.725 78.1443 133.686 77.8889C133.646 77.5549 133.666 77.2602 133.745 77.0047C133.843 76.7493 133.961 76.5332 134.138 76.3563C134.295 76.1795 134.491 76.042 134.727 75.9437C134.943 75.8258 135.179 75.7669 135.395 75.7473C135.729 75.708 136.063 75.7276 136.338 75.7865C136.633 75.8651 136.869 75.983 137.085 76.1402L136.476 77.2405Z" fill="#131711"/>
<path d="M19.1177 81.1701L17.2118 75.374L18.5872 74.9221L20.493 80.7182L19.1177 81.1701Z" fill="white"/>
<path d="M25.1496 79.5786L22.949 76.2385H22.9294L23.7153 79.8734L22.4578 80.1288L21.22 74.1558L22.7722 73.8414L24.9728 77.2209H24.9924L24.1868 73.5467L25.405 73.2913L26.6428 79.2643L25.1496 79.5786Z" fill="white"/>
<path d="M32.7731 75.3936C32.8321 75.8455 32.8321 76.2581 32.7731 76.6511C32.7142 77.0244 32.5963 77.378 32.3998 77.6531C32.2033 77.9478 31.9676 78.164 31.6532 78.3604C31.3388 78.5373 30.9459 78.6748 30.494 78.7141L28.706 78.9302L27.979 72.8786L29.7473 72.6625C30.1992 72.6035 30.5922 72.6428 30.9459 72.7411C31.2995 72.8393 31.5943 73.0162 31.83 73.2519C32.0855 73.4877 32.2819 73.7824 32.4195 74.1557C32.616 74.5094 32.7142 74.922 32.7731 75.3936ZM31.3388 75.5704C31.2602 74.9613 31.103 74.5094 30.8476 74.2343C30.5922 73.9593 30.2975 73.8217 29.9438 73.8807L29.5901 73.92L30.0224 77.5942L30.3761 77.5549C30.7297 77.5156 30.9852 77.3191 31.162 76.9851C31.3585 76.6314 31.3978 76.1598 31.3388 75.5704Z" fill="white"/>
<path d="M38.9818 76.6904C38.9229 76.9851 38.805 77.2405 38.6478 77.4763C38.4906 77.7121 38.2745 77.8889 37.9994 78.0265C37.7244 78.164 37.41 78.2622 37.017 78.2819C36.6241 78.3015 36.2901 78.2622 36.015 78.1444C35.7399 78.0265 35.5041 77.8693 35.3273 77.6728C35.1308 77.4567 34.9933 77.2209 34.9147 76.9262C34.8164 76.6314 34.7771 76.3171 34.7379 75.9831L34.5021 72.1517L35.956 72.0534L36.1918 75.7669C36.2115 75.9438 36.2311 76.1009 36.2508 76.2385C36.2901 76.3957 36.3293 76.5136 36.3883 76.6118C36.4472 76.71 36.5258 76.7886 36.6241 76.8476C36.7223 76.9065 36.8402 76.9262 36.9777 76.9262C37.1153 76.9262 37.2332 76.8672 37.3118 76.8083C37.3903 76.7297 37.4689 76.6511 37.5082 76.5332C37.5475 76.4153 37.5868 76.2974 37.6065 76.1402C37.6261 75.9831 37.6261 75.8259 37.6065 75.649L37.3707 71.9356L38.805 71.8373L39.0408 75.6687C39.0801 76.0813 39.0604 76.3957 38.9818 76.6904Z" fill="white"/>
<path d="M43.7563 73.2323C43.6384 73.1144 43.5205 73.0162 43.3633 72.9572C43.2258 72.8983 43.0686 72.859 42.9114 72.859C42.7542 72.859 42.597 72.9179 42.4792 73.0162C42.3613 73.1144 42.3023 73.2913 42.3023 73.5074C42.3023 73.6842 42.3809 73.8414 42.5184 73.9396C42.656 74.0379 42.8525 74.1558 43.1079 74.2737C43.2651 74.3326 43.4026 74.4112 43.5794 74.5094C43.7366 74.6077 43.8938 74.7059 44.0313 74.8435C44.1689 74.981 44.2868 75.1382 44.3654 75.3347C44.4636 75.5311 44.5029 75.7473 44.5029 76.0223C44.5226 76.3564 44.4636 76.6314 44.3654 76.8869C44.2671 77.1423 44.1099 77.3584 43.9331 77.5156C43.7563 77.6924 43.5401 77.8103 43.3044 77.9086C43.0686 78.0068 42.8132 78.0461 42.5577 78.0461C42.1648 78.0461 41.8308 78.0068 41.4967 77.8693C41.1824 77.7514 40.9269 77.5942 40.7305 77.3977L41.4378 76.3564C41.5753 76.4939 41.7522 76.5921 41.929 76.6707C42.1058 76.7493 42.3023 76.7886 42.4792 76.7886C42.656 76.7886 42.7935 76.7297 42.9114 76.6118C43.0293 76.4939 43.0882 76.3564 43.0882 76.1599C43.0882 75.9634 43.0096 75.8062 42.8525 75.6883C42.6953 75.5704 42.4988 75.4525 42.2237 75.3347C42.0469 75.2561 41.8897 75.1775 41.7325 75.0792C41.5753 74.981 41.4378 74.8828 41.3199 74.7452C41.202 74.6077 41.1038 74.4505 41.0448 74.2737C40.9859 74.0968 40.9466 73.8807 40.9269 73.6253C40.9073 73.2913 40.9662 72.9965 41.0841 72.7411C41.202 72.5053 41.3396 72.2892 41.536 72.132C41.7325 71.9748 41.929 71.8569 42.1648 71.7587C42.4006 71.6801 42.6167 71.6408 42.8525 71.6408C43.2061 71.6212 43.5205 71.6801 43.7956 71.7784C44.0706 71.8766 44.3064 72.0141 44.5029 72.2106L43.7563 73.2323Z" fill="white"/>
<path d="M48.3932 72.9375L48.3539 77.8692H46.9393L46.9786 72.9179H45.8193V71.739L49.5721 71.7587V72.9375H48.3932Z" fill="white"/>
<path d="M53.7964 77.9871L53.0301 75.5311L52.6175 75.5115L52.5389 77.9478L51.1636 77.9085L51.3601 71.798L53.4035 71.8766C54.0126 71.8962 54.4841 72.073 54.8181 72.3874C55.1521 72.7018 55.3093 73.1733 55.2897 73.7824C55.2897 73.9986 55.2504 74.2147 55.1914 74.3719C55.1325 74.5487 55.0539 74.7059 54.9753 74.8238C54.8771 74.9417 54.7788 75.0399 54.6806 75.1185C54.5627 75.1971 54.4645 75.256 54.3662 75.2757L55.3683 78.0461L53.7964 77.9871ZM53.8357 73.8021C53.8357 73.6449 53.8161 73.5074 53.7768 73.4091C53.7375 73.3109 53.6785 73.2323 53.6196 73.1733C53.541 73.1144 53.4624 73.0751 53.3838 73.0555C53.3052 73.0358 53.207 73.0162 53.1284 73.0162L52.6765 72.9965L52.6372 74.5487H53.0498C53.2463 74.5487 53.4428 74.4898 53.5803 74.3915C53.7571 74.2736 53.8357 74.0772 53.8357 73.8021Z" fill="white"/>
<path d="M57.058 78.1247L57.3724 72.0338L58.8263 72.1123L58.4923 78.2033L57.058 78.1247Z" fill="white"/>
<path d="M63.5026 78.5373L63.3258 77.4173L61.8915 77.3191L61.5575 78.3998L60.1232 78.3015L62.1076 72.3285L63.9153 72.4464L65.0155 78.6552L63.5026 78.5373ZM62.8936 73.7039H62.8543L62.1273 76.2581L63.2079 76.3367L62.8936 73.7039Z" fill="white"/>
<path d="M66.6071 78.7731L67.1572 72.7018L68.6112 72.8394L68.1789 77.6531L69.8686 77.8103L69.7508 79.0874L66.6071 78.7731Z" fill="white"/>
<path d="M78.8281 76.9851C78.7691 77.437 78.6709 77.8496 78.5334 78.2033C78.3958 78.5569 78.1993 78.8516 77.9439 79.1071C77.7081 79.3428 77.3938 79.5197 77.0598 79.6179C76.7061 79.7162 76.3131 79.7555 75.8612 79.6965L74.0929 79.5L74.7806 73.4288L76.5686 73.6253C77.0205 73.6842 77.4134 73.8021 77.7278 73.9789C78.0422 74.1557 78.2976 74.3915 78.4744 74.6862C78.6513 74.981 78.7888 75.315 78.8477 75.708C78.887 76.1009 78.887 76.5135 78.8281 76.9851ZM77.3938 76.8279C77.4527 76.2188 77.4134 75.7472 77.2169 75.4132C77.0401 75.0792 76.765 74.8827 76.431 74.8434L76.0774 74.8041L75.6647 78.4783L76.0184 78.5176C76.3721 78.5569 76.6668 78.439 76.9222 78.1443C77.1776 77.8496 77.3348 77.4173 77.3938 76.8279Z" fill="white"/>
<path d="M80.5573 80.3056L81.0288 74.2147L84.0939 74.4505L83.9957 75.6686L82.3059 75.5311L82.2077 76.7296L83.7599 76.8475L83.6617 77.9871L82.0898 77.8692L81.9916 79.1857L83.7992 79.3232L83.7009 80.561L80.5573 80.3056Z" fill="white"/>
<path d="M91.1671 81.0719L90.9706 79.952L89.5363 79.8537L89.2023 80.954L87.7679 80.8558L89.7131 74.8631L91.5207 74.981L92.6603 81.1701L91.1671 81.0719ZM90.5187 76.2385H90.4794L89.772 78.7927L90.8527 78.8713L90.5187 76.2385Z" fill="white"/>
<path d="M94.2911 81.2684L94.6448 75.1775L96.0988 75.2561L95.8237 80.0698L97.5331 80.1681L97.4545 81.4452L94.2911 81.2684Z" fill="white"/>
<path d="M99.1639 81.5238L99.4783 75.4329L100.932 75.5115L100.638 81.6024L99.1639 81.5238Z" fill="white"/>
<path d="M107.2 81.8775L107.416 77.6924H107.377L106.139 81.8382L105.117 81.7989L104.253 77.5745H104.233L104.115 81.7596L102.818 81.7006L103.054 75.6097L104.862 75.6883L105.726 79.6572H105.766L106.925 75.7669L108.85 75.8455L108.615 81.9364L107.2 81.8775Z" fill="white"/>
<path d="M110.796 81.9953L110.953 75.9044L114.037 75.983L113.998 77.2012L112.308 77.1619L112.289 78.3604L113.861 78.3997L113.821 79.5393L112.249 79.5L112.21 80.8164L114.018 80.8557L113.998 82.0936L110.796 81.9953Z" fill="white"/>
<path d="M118.655 82.1525L117.221 78.4194H117.201V82.1329L115.924 82.1132L115.983 76.0027L117.574 76.0223L119.009 79.7948H119.028L119.048 76.0223L120.286 76.042L120.227 82.1525H118.655Z" fill="white"/>
<path d="M124.313 77.2012L124.372 82.1329L122.958 82.1525L122.899 77.2209L121.72 77.2405L121.7 76.0616L125.453 76.0223L125.473 77.2012H124.313Z" fill="white"/>
<path d="M131.564 78.7927C131.583 79.2839 131.544 79.7162 131.465 80.1288C131.367 80.5414 131.23 80.8754 131.033 81.1701C130.837 81.4649 130.581 81.681 130.286 81.8578C129.992 82.0347 129.658 82.1132 129.284 82.1329C128.911 82.1525 128.557 82.0936 128.263 81.9561C127.948 81.8185 127.693 81.6024 127.457 81.347C127.241 81.0719 127.064 80.7379 126.927 80.3449C126.789 79.952 126.71 79.5197 126.691 79.0285C126.671 78.5373 126.71 78.105 126.789 77.6924C126.887 77.2995 127.025 76.9458 127.221 76.6707C127.418 76.376 127.654 76.1599 127.968 75.983C128.263 75.8062 128.597 75.7276 128.99 75.708C129.363 75.6883 129.717 75.7473 130.011 75.8848C130.326 76.0223 130.581 76.2188 130.797 76.4939C131.033 76.769 131.19 77.0833 131.328 77.4763C131.465 77.8693 131.544 78.3212 131.564 78.7927ZM130.09 78.8713C130.07 78.5962 130.051 78.3605 129.992 78.1443C129.933 77.9086 129.874 77.7317 129.776 77.5549C129.697 77.3977 129.579 77.2798 129.461 77.1816C129.343 77.0833 129.186 77.044 129.029 77.0637C128.872 77.0637 128.734 77.1226 128.616 77.2209C128.498 77.3191 128.4 77.4566 128.322 77.6335C128.243 77.8103 128.204 78.0068 128.164 78.2229C128.145 78.4587 128.125 78.6945 128.145 78.9695C128.145 79.225 128.184 79.4804 128.243 79.7162C128.282 79.952 128.361 80.1288 128.459 80.3056C128.538 80.4628 128.656 80.6003 128.773 80.6986C128.891 80.7772 129.049 80.8361 129.206 80.8165C129.363 80.8165 129.5 80.7575 129.618 80.6396C129.736 80.5414 129.834 80.4039 129.893 80.227C129.972 80.0502 130.011 79.8537 130.051 79.6179C130.09 79.3822 130.09 79.1267 130.09 78.8713Z" fill="white"/>
<path d="M135.965 76.7296C135.847 76.6314 135.709 76.5528 135.552 76.4939C135.395 76.4349 135.238 76.4349 135.1 76.4546C134.943 76.4742 134.805 76.5332 134.688 76.6511C134.57 76.7689 134.53 76.9261 134.55 77.1619C134.57 77.3584 134.648 77.4959 134.805 77.5745C134.943 77.6728 135.159 77.7513 135.434 77.8496C135.591 77.8889 135.749 77.9675 135.925 78.0264C136.102 78.105 136.259 78.2033 136.397 78.3211C136.554 78.439 136.672 78.5962 136.79 78.773C136.908 78.9499 136.967 79.166 137.006 79.4411C137.045 79.7555 137.026 80.0502 136.947 80.3252C136.869 80.5807 136.751 80.8164 136.593 80.9933C136.436 81.1898 136.24 81.3273 136.004 81.4452C135.768 81.5631 135.532 81.622 135.277 81.6613C134.884 81.7006 134.53 81.681 134.216 81.5827C133.882 81.4845 133.607 81.3666 133.41 81.2094L134.02 80.0895C134.177 80.2074 134.354 80.3056 134.53 80.3645C134.727 80.4235 134.904 80.4431 135.081 80.4235C135.257 80.4038 135.395 80.3252 135.493 80.2074C135.591 80.0895 135.65 79.9323 135.611 79.7358C135.591 79.5393 135.493 79.3821 135.336 79.2839C135.179 79.1857 134.963 79.0874 134.668 78.9892C134.491 78.9302 134.314 78.8516 134.137 78.7927C133.98 78.7141 133.823 78.6159 133.686 78.498C133.548 78.3801 133.45 78.2229 133.352 78.0461C133.273 77.8692 133.194 77.6531 133.175 77.4173C133.135 77.0833 133.155 76.7689 133.234 76.5332C133.312 76.2777 133.45 76.0616 133.607 75.8848C133.764 75.7079 133.98 75.5704 134.196 75.4525C134.413 75.3543 134.648 75.2953 134.884 75.256C135.238 75.2167 135.552 75.2167 135.827 75.2953C136.122 75.3739 136.358 75.4918 136.574 75.649L135.965 76.7296Z" fill="white"/>
<path d="M141.525 39.0839C140.68 39.0839 139.993 39.7716 139.993 40.6165C139.993 41.4613 140.68 42.149 141.525 42.149C142.37 42.149 143.058 41.4613 143.058 40.6165C143.077 39.7716 142.39 39.0839 141.525 39.0839ZM141.525 41.874C140.838 41.874 140.268 41.3042 140.268 40.6165C140.268 39.9288 140.838 39.359 141.525 39.359C142.213 39.359 142.783 39.9288 142.783 40.6165C142.802 41.3042 142.233 41.874 141.525 41.874Z" fill="white"/>
<path d="M141.348 40.6754V41.3827H140.995V39.752H141.643C141.722 39.752 141.781 39.752 141.859 39.7716C141.918 39.7913 141.977 39.8109 142.016 39.8305C142.056 39.8698 142.095 39.9091 142.134 39.9484C142.154 40.0074 142.174 40.0663 142.174 40.1449C142.174 40.2039 142.174 40.2432 142.154 40.2825C142.154 40.3217 142.134 40.361 142.115 40.4003C142.095 40.4396 142.056 40.4789 142.036 40.4986C141.997 40.5182 141.958 40.5379 141.899 40.5575C141.997 40.5772 142.075 40.5968 142.115 40.6558C142.154 40.7147 142.174 40.7737 142.174 40.8522C142.174 40.8719 142.174 40.8915 142.174 40.9112C142.174 40.9505 142.174 40.9701 142.174 41.0094C142.174 41.0487 142.174 41.088 142.174 41.1273C142.174 41.1666 142.174 41.2059 142.193 41.2452C142.193 41.2845 142.213 41.3042 142.213 41.3434C142.213 41.3631 142.233 41.3827 142.252 41.4024V41.4417H141.879C141.879 41.422 141.859 41.3827 141.859 41.3434C141.859 41.3042 141.859 41.2649 141.84 41.2452C141.84 41.2059 141.84 41.1666 141.84 41.1273C141.84 41.088 141.84 41.0684 141.84 41.0291C141.84 41.0094 141.84 40.9898 141.84 40.9505C141.84 40.9112 141.84 40.8915 141.82 40.8719C141.82 40.8522 141.8 40.8326 141.781 40.813C141.761 40.7933 141.741 40.7737 141.722 40.7737C141.663 40.754 141.623 40.754 141.565 40.754C141.506 40.754 141.466 40.754 141.407 40.754H141.348V40.6754ZM141.348 40.42H141.623C141.682 40.42 141.722 40.4003 141.761 40.361C141.8 40.3217 141.82 40.2628 141.82 40.1842C141.82 40.1449 141.82 40.1056 141.8 40.0663C141.8 40.0467 141.781 40.0074 141.761 40.0074C141.741 39.9877 141.722 39.9877 141.682 39.9681C141.663 39.9681 141.623 39.9681 141.604 39.9681H141.348V40.42Z" fill="white"/>
<path d="M74.4662 31.0282L74.4073 31.1854L75.1342 29.9279H78.5334L73.8964 37.9443C73.8178 38.0819 73.7392 38.2194 73.6803 38.3373C73.6213 38.4552 73.5624 38.5731 73.5231 38.7106C73.4052 39.0643 73.3856 39.3001 73.4838 39.4769C73.582 39.6341 73.7982 39.7127 74.1322 39.7127C74.5448 39.7127 74.977 39.5162 75.4486 39.1429C75.9202 38.7696 76.3917 38.2194 76.8436 37.5121H77.826C76.8043 38.9661 75.7433 40.0467 74.6823 40.7737C73.6213 41.5007 72.5603 41.874 71.4993 41.874C70.8313 41.874 70.3597 41.6775 70.0847 41.3042C69.8292 40.9309 69.79 40.4004 69.9668 39.693C69.2202 40.42 68.4735 40.9505 67.7662 41.3238C67.0392 41.6971 66.3515 41.874 65.6639 41.874C64.6814 41.874 64.0527 41.54 63.7187 40.8916C63.4043 40.2235 63.4633 39.3001 63.8955 38.0819C64.2099 37.1977 64.6814 36.2743 65.2905 35.3312C65.9193 34.3684 66.607 33.5039 67.3536 32.718C68.277 31.7945 69.2202 31.0872 70.1633 30.596C71.1064 30.1048 72.0495 29.8493 72.9533 29.8493C73.5624 29.8493 73.9946 29.9672 74.2501 30.1637C74.5448 30.3405 74.6037 30.6353 74.4662 31.0282ZM73.8178 32.1678C73.9161 31.932 73.8964 31.7159 73.7982 31.5391C73.6999 31.3622 73.4838 31.264 73.1891 31.264C72.3246 31.264 71.3029 31.991 70.1043 33.4253C68.9058 34.8792 68.0609 36.2939 67.5501 37.7086C67.3339 38.3177 67.2357 38.7892 67.2946 39.0839C67.3536 39.3787 67.609 39.5358 68.0413 39.5358C68.4539 39.5358 68.9254 39.3394 69.4559 38.9464C69.9864 38.5534 70.4187 38.0622 70.7724 37.4728L73.8178 32.1678Z" fill="#131711"/>
<path d="M17.8404 52.7394C17.467 53.7414 17.4474 54.5077 17.7618 55.0579C18.0761 55.608 18.7049 55.8831 19.6676 55.8831C20.7679 55.8831 21.9861 55.5884 23.3418 54.9793C24.6779 54.3702 25.7782 53.6235 26.6034 52.7001L27.2125 53.0145C25.7978 54.7828 24.0492 56.1974 21.9665 57.2781C19.8838 58.3587 17.86 58.8892 15.9345 58.8892C14.1465 58.8892 12.9283 58.398 12.2603 57.396C11.6119 56.3939 11.5726 55.0579 12.1817 53.3878C12.8497 51.5801 14.009 49.8708 15.6987 48.2793C17.3885 46.6878 19.1175 45.6857 20.9055 45.2928C20.4339 44.8605 20.1588 44.3103 20.0802 43.662C20.0016 43.0136 20.0802 42.3062 20.375 41.54C21.0037 39.7913 22.2415 38.2391 24.0885 36.8834C25.9354 35.5277 27.7823 34.84 29.6685 34.84C31.0046 34.84 31.9477 35.1936 32.5175 35.901C33.0873 36.6083 33.1462 37.5514 32.714 38.7499C32.3799 39.6538 31.8691 40.4397 31.2011 41.0488C30.5134 41.6775 29.865 41.9919 29.2166 41.9919C28.9219 41.9919 28.6861 41.9133 28.5093 41.7757C28.3324 41.6186 28.1753 41.4221 28.0574 41.147C28.47 41.0291 28.9219 40.6755 29.3934 40.1253C29.865 39.5752 30.199 39.0054 30.4151 38.4159C30.6116 37.8854 30.6116 37.4532 30.4151 37.1388C30.2187 36.8244 29.865 36.6672 29.3345 36.6672C28.4503 36.6672 27.5465 37.0995 26.6034 37.9837C25.6603 38.8678 24.9726 39.8895 24.5404 41.0684C24.167 42.1098 24.1081 42.9939 24.4028 43.7406C24.6779 44.4872 25.287 44.998 26.1712 45.2535C24.5011 45.6071 22.8506 46.5306 21.2002 48.0435C19.5301 49.5957 18.4298 51.1479 17.8404 52.7394Z" fill="#131711"/>
<path d="M36.1918 53.1127C36.0936 53.3681 36.015 53.5842 35.9167 53.7611C35.8381 53.9575 35.7399 54.1344 35.6417 54.2916C36.1525 54.0361 36.6437 53.7807 37.1546 53.5056C37.6458 53.2306 38.078 52.9751 38.471 52.7197H39.7874C38.864 53.4663 37.9012 54.154 36.8991 54.8024C35.8971 55.4311 34.7771 56.0402 33.5983 56.6297C32.8123 57.2388 31.9282 57.7103 30.9458 58.0247C29.9437 58.3391 28.981 58.5159 28.0182 58.5159C26.6232 58.5159 25.6604 58.1229 25.1103 57.3763C24.5601 56.61 24.5012 55.6669 24.9138 54.5273C25.1496 53.8789 25.5229 53.2895 26.0337 52.759C26.5446 52.2285 27.0751 51.8552 27.6449 51.6194C28.8238 50.3423 29.9634 48.9866 31.103 47.5523C32.2425 46.0983 33.5 44.3693 34.8557 42.3848L39.7088 41.7561C39.198 43.3279 38.7657 44.7426 38.3728 46.0394C37.9798 47.3361 37.5868 48.7312 37.1546 50.2637C36.8991 51.1479 36.7223 51.757 36.6044 52.1106C36.4276 52.4446 36.3097 52.7983 36.1918 53.1127ZM33.7554 45.7446C33.166 46.5895 32.5176 47.4933 31.7906 48.4168C31.0637 49.3402 30.1598 50.4209 29.0596 51.6587C29.256 51.757 29.3739 51.9141 29.4329 52.091C29.4918 52.2875 29.4722 52.4839 29.3739 52.7394C29.2364 53.1323 28.9613 53.486 28.588 53.8004C28.2147 54.1147 27.8217 54.2719 27.4484 54.2719C27.2323 54.2719 27.0751 54.2326 26.9572 54.154C26.8393 54.0754 26.7607 53.9772 26.7607 53.8593C26.4857 54.6256 26.4267 55.1757 26.6035 55.5294C26.7804 55.8634 27.2126 56.0402 27.8807 56.0402C28.7255 56.0402 29.4918 55.7848 30.1598 55.2936C30.8279 54.7828 31.3191 54.0754 31.6728 53.1323C31.771 52.8376 31.8692 52.5429 31.9675 52.2482C32.0461 51.9534 32.2032 51.4426 32.3997 50.7353C32.6552 49.7528 32.8909 48.8883 33.0874 48.1417C33.2839 47.4147 33.5 46.6092 33.7554 45.7446Z" fill="#131711"/>
<path d="M35.8578 65.0194L30.7296 66.1393L44.8959 41.5596H49.3953L48.0396 43.9173C48.7273 43.4654 49.3953 43.1511 50.083 42.9153C50.7707 42.6795 51.4584 42.5616 52.1853 42.5616C53.4428 42.5616 54.2287 42.9742 54.5628 43.8191C54.8968 44.6443 54.7789 45.8822 54.1894 47.5129C53.0302 50.6959 51.3994 53.3288 49.2578 55.4115C47.1358 57.4942 44.8762 58.5355 42.4792 58.5355C41.8111 58.5355 41.3003 58.4373 40.9073 58.2604C40.534 58.0836 40.2982 57.7889 40.2393 57.4156L35.8578 65.0194ZM41.595 55.0971C41.595 55.3329 41.6736 55.5097 41.8308 55.6276C41.988 55.7455 42.2238 55.8044 42.5185 55.8044C43.8349 55.8044 45.1906 54.9596 46.6053 53.2698C48.0199 51.5801 49.1399 49.6349 49.9455 47.3951C50.2598 46.5502 50.3581 45.9018 50.2795 45.4499C50.1812 45.0176 49.8669 44.8015 49.3364 44.8015C48.963 44.8015 48.5308 44.939 48.0199 45.2338C47.5287 45.5088 47.0572 45.8822 46.6249 46.3341L41.595 55.0971Z" fill="#131711"/>
<path d="M67.6091 45.4303C66.9804 47.1593 65.7229 48.6526 63.8367 49.9493C61.9505 51.2265 60.0053 51.9338 58.0209 52.032C57.8637 52.3857 57.7654 52.6411 57.6868 52.8179C57.6082 52.9948 57.5493 53.152 57.51 53.2699C57.1563 54.2326 57.0777 54.9006 57.2546 55.2936C57.4314 55.6866 57.9423 55.883 58.8068 55.883C59.7892 55.883 60.7716 55.6669 61.754 55.215C62.7364 54.7631 63.9742 53.9379 65.4871 52.7394H66.5481C64.6226 54.7042 62.7953 56.1385 61.027 57.1012C59.2587 58.0443 57.5493 58.5355 55.8596 58.5355C54.2484 58.5355 53.1874 58.1229 52.6766 57.2781C52.1657 56.4528 52.205 55.215 52.7945 53.5646C53.2267 52.366 53.8751 51.1086 54.7396 49.7725C55.6041 48.4364 56.5276 47.2575 57.5297 46.2162C58.7478 44.9587 60.025 44.0156 61.3217 43.3869C62.6382 42.7581 63.9546 42.4241 65.271 42.4241C66.4106 42.4241 67.1965 42.6599 67.5895 43.1707C67.9628 43.6619 67.9824 44.4086 67.6091 45.4303ZM64.9173 44.0942C64.21 44.0942 63.2669 44.7229 62.088 45.9804C60.9091 47.2379 59.8285 48.7508 58.8264 50.5191C60.0643 50.4405 61.3217 49.8707 62.5989 48.849C63.876 47.8273 64.7601 46.6484 65.2317 45.3713C65.3889 44.9391 65.4478 44.6247 65.3889 44.4086C65.3496 44.1924 65.1728 44.0942 64.9173 44.0942Z" fill="#131711"/>
<path d="M66.784 58.339H62.2845L71.2834 42.7188H75.7828L74.6825 44.664C75.881 43.8977 76.7848 43.3868 77.4136 43.1118C78.0423 42.8563 78.6318 42.7188 79.1623 42.7188C79.8106 42.7188 80.2429 42.9349 80.4787 43.3869C80.7145 43.8388 80.6948 44.3889 80.459 45.0569C80.2233 45.7053 79.8106 46.2358 79.2409 46.6877C78.6711 47.12 78.0423 47.3361 77.3743 47.3361C77.0206 47.3361 76.7848 47.2575 76.6473 47.0807C76.5098 46.9039 76.4901 46.5698 76.608 46.059C76.6669 45.725 76.6669 45.5088 76.6277 45.4106C76.5687 45.3124 76.4901 45.2731 76.3329 45.2731C75.9793 45.2731 75.6256 45.332 75.2523 45.4892C74.879 45.6464 74.3485 45.9607 73.6215 46.4519L66.784 58.339Z" fill="#131711"/>
<path d="M90.0079 44.1531L89.9293 44.3692L90.8724 42.7188H95.3718L89.2613 53.3288C89.1434 53.5253 89.0648 53.6824 88.9862 53.8396C88.9076 53.9968 88.829 54.154 88.7701 54.3308C88.5932 54.7827 88.5736 55.1168 88.7111 55.3525C88.829 55.5687 89.1237 55.6865 89.556 55.6865C90.1061 55.6865 90.6759 55.4311 91.3047 54.9203C91.9334 54.4094 92.5425 53.6824 93.1516 52.759H94.468C93.0927 54.6845 91.7173 56.1188 90.3026 57.0816C88.888 58.0443 87.4733 58.5355 86.0979 58.5355C85.1941 58.5355 84.585 58.2801 84.2314 57.7692C83.8777 57.278 83.8384 56.5707 84.0742 55.6473C83.0721 56.61 82.1094 57.3173 81.1466 57.8085C80.1839 58.2801 79.2604 58.5355 78.3762 58.5355C77.0795 58.5355 76.2346 58.0836 75.8023 57.2191C75.3897 56.3349 75.4683 55.0971 76.0578 53.5056C76.49 52.3464 77.0991 51.1085 77.9243 49.8511C78.7299 48.5739 79.6534 47.4343 80.6554 46.393C81.8736 45.1552 83.1114 44.2121 84.3689 43.5637C85.6264 42.9153 86.8642 42.5813 88.0627 42.5813C88.888 42.5813 89.4578 42.7188 89.7918 43.0135C90.1061 43.2689 90.1847 43.6619 90.0079 44.1531ZM89.163 45.6857C89.2809 45.3713 89.2613 45.0962 89.1237 44.8604C88.9862 44.6247 88.7111 44.5068 88.3182 44.5068C87.1786 44.5068 85.8032 45.4695 84.2314 47.3754C82.6399 49.2813 81.5199 51.1871 80.8322 53.0537C80.5375 53.8789 80.4393 54.4684 80.5179 54.881C80.5965 55.2936 80.9305 55.4901 81.5199 55.4901C82.0504 55.4901 82.6792 55.2346 83.3865 54.7238C84.0938 54.1933 84.6636 53.5449 85.1155 52.759L89.163 45.6857Z" fill="#131711"/>
<path d="M99.9302 54.9989C100.068 54.6256 100.284 54.154 100.579 53.6039C100.873 53.0341 101.384 52.1499 102.131 50.9121C102.858 49.7332 103.349 48.8687 103.624 48.3578C103.899 47.8273 104.096 47.3951 104.233 47.0414C104.43 46.5306 104.469 46.118 104.371 45.8625C104.292 45.5875 104.056 45.4499 103.683 45.4499C103.192 45.4499 102.622 45.7053 102.013 46.2162C101.404 46.7271 100.795 47.4344 100.205 48.3185L94.4287 58.3391H89.9293L98.9282 42.7188H103.428L102.484 44.3496C103.211 43.7602 103.938 43.3279 104.646 43.0332C105.353 42.7385 106.06 42.601 106.768 42.601C107.868 42.601 108.615 42.8957 109.008 43.5048C109.381 44.1139 109.381 44.9784 108.949 46.1376C108.772 46.6092 108.516 47.179 108.163 47.847C107.809 48.4954 107.22 49.4974 106.394 50.8532C105.746 51.9141 105.294 52.6608 105.039 53.093C104.803 53.5253 104.626 53.8986 104.528 54.1933C104.371 54.6256 104.351 54.9596 104.469 55.1757C104.606 55.3919 104.882 55.4901 105.294 55.4901C105.805 55.4901 106.316 55.3133 106.827 54.9596C107.318 54.6059 108.025 53.879 108.909 52.7394H110.226C108.85 54.6649 107.514 56.1188 106.218 57.0816C104.921 58.0443 103.624 58.5356 102.308 58.5356C101.129 58.5356 100.343 58.2212 99.9302 57.5728C99.5372 56.9441 99.5372 56.0795 99.9302 54.9989Z" fill="#131711"/>
<path d="M114.155 56.0009C114.607 56.0402 114.941 56.0795 115.177 56.0992C115.413 56.1188 115.609 56.1385 115.806 56.1385C116.258 56.1385 116.631 56.0795 116.906 55.9813C117.181 55.883 117.378 55.7259 117.496 55.5097C117.319 55.4901 117.201 55.4311 117.142 55.3132C117.083 55.1954 117.083 55.0578 117.142 54.8613C117.26 54.5077 117.555 54.1933 117.987 53.9182C118.419 53.6432 118.891 53.5253 119.382 53.5253C119.814 53.5253 120.109 53.6628 120.246 53.9182C120.384 54.1933 120.364 54.547 120.207 55.0185C119.893 55.883 119.244 56.6493 118.262 57.337C117.279 58.0247 116.238 58.3587 115.177 58.3587H106.905L119.952 44.4282H118.203C117.555 44.4282 117.103 44.4675 116.808 44.5461C116.533 44.6247 116.356 44.7622 116.297 44.9194C116.474 45.0766 116.494 45.3124 116.395 45.6071C116.218 46.0983 115.904 46.5109 115.472 46.8056C115.04 47.1003 114.588 47.2575 114.096 47.2575C113.684 47.2575 113.389 47.12 113.212 46.8842C113.035 46.6288 113.016 46.2948 113.173 45.8822C113.448 45.1159 114.077 44.3889 115.04 43.7209C116.002 43.0528 116.965 42.7188 117.948 42.7188H125.984L113.527 55.9223C113.586 55.9223 113.664 55.9223 113.762 55.942C113.802 55.9616 113.959 55.9813 114.155 56.0009Z" fill="#131711"/>
<path d="M135.572 44.1531L135.493 44.3692L136.436 42.7188H140.936L134.825 53.3288C134.707 53.5253 134.629 53.6824 134.55 53.8396C134.472 53.9968 134.413 54.154 134.354 54.3308C134.177 54.7827 134.157 55.1168 134.295 55.3525C134.413 55.5687 134.707 55.6865 135.14 55.6865C135.67 55.6865 136.26 55.4311 136.888 54.9203C137.517 54.4094 138.126 53.6824 138.735 52.759H140.052C138.676 54.6845 137.301 56.1188 135.886 57.0816C134.472 58.0443 133.077 58.5355 131.682 58.5355C130.778 58.5355 130.169 58.2801 129.815 57.7692C129.461 57.278 129.422 56.5707 129.677 55.6473C128.675 56.61 127.713 57.3173 126.75 57.8085C125.787 58.2801 124.864 58.5355 123.979 58.5355C122.683 58.5355 121.838 58.0836 121.406 57.2191C120.993 56.3349 121.072 55.0971 121.641 53.5056C122.074 52.3464 122.683 51.1085 123.508 49.8511C124.313 48.5739 125.237 47.4343 126.239 46.393C127.457 45.1552 128.695 44.2121 129.952 43.5637C131.21 42.9153 132.448 42.5813 133.646 42.5813C134.452 42.5813 135.041 42.7188 135.375 43.0135C135.69 43.2689 135.768 43.6619 135.572 44.1531ZM134.747 45.6857C134.865 45.3713 134.845 45.0962 134.707 44.8604C134.57 44.6247 134.295 44.5068 133.902 44.5068C132.762 44.5068 131.387 45.4695 129.815 47.3754C128.223 49.2813 127.104 51.1871 126.416 53.0537C126.121 53.8789 126.023 54.4684 126.101 54.881C126.18 55.2936 126.514 55.4901 127.104 55.4901C127.654 55.4901 128.263 55.2346 128.97 54.7238C129.677 54.1933 130.247 53.5449 130.699 52.759L134.747 45.6857Z" fill="#131711"/>
<path d="M62.3237 36.51C61.9307 36.7851 61.4788 37.0209 61.0073 37.2566C60.2017 37.63 59.3372 37.905 58.3941 38.0622C57.5492 38.2194 56.331 38.298 54.7592 38.3176L54.7788 38.298C54.7788 38.298 62.5791 24.4264 64.7208 21.047C64.485 21.1059 62.7363 21.5382 60.7322 22.1473L53.3249 34.8203L51.2029 38.5141L49.8275 40.8915L49.9061 40.8719C51.0457 40.8719 52.5979 41.0487 54.5431 41.4417C56.5275 41.815 57.9815 41.9722 58.9049 41.9329C59.7695 41.8936 60.5554 41.7168 61.2627 41.4024C61.8325 41.0487 63.9741 39.4769 62.4612 36.4511C62.3826 36.4511 62.363 36.4904 62.3237 36.51Z" fill="#131711"/>
<path d="M73.7196 30.6549L73.6607 30.8317L74.368 29.5742H77.7671L73.1498 37.5906C73.0713 37.7282 72.9927 37.8657 72.9337 37.9836C72.8748 38.1015 72.8158 38.2194 72.7765 38.3569C72.639 38.7106 72.639 38.966 72.7372 39.1232C72.8355 39.2804 73.0516 39.3786 73.366 39.3786C73.7786 39.3786 74.2108 39.1821 74.6824 38.8088C75.1539 38.4159 75.6059 37.8854 76.0774 37.1584H77.0598C76.0381 38.6123 74.9771 39.693 73.9161 40.42C72.8551 41.1469 71.7941 41.5203 70.7331 41.5203C70.0651 41.5203 69.5935 41.3238 69.3185 40.9505C69.063 40.5772 69.0237 40.0467 69.2006 39.3393C68.4539 40.0663 67.7073 40.6164 67 40.9701C66.273 41.3238 65.5853 41.5006 64.8976 41.5006C63.9152 41.5006 63.2668 41.1666 62.9525 40.5182C62.6381 39.8502 62.6971 38.9267 63.149 37.7085C63.4633 36.8244 63.9349 35.9009 64.544 34.9578C65.1531 33.995 65.8604 33.1305 66.607 32.3446C67.5305 31.4211 68.4736 30.7138 69.4167 30.203C70.3598 29.7118 71.3029 29.4563 72.2067 29.4563C72.8158 29.4563 73.2481 29.5546 73.5035 29.7707C73.7982 29.9868 73.8572 30.2619 73.7196 30.6549ZM73.0909 31.8141C73.1695 31.5783 73.1695 31.3622 73.0712 31.1854C72.9534 31.0085 72.7569 30.9103 72.4622 30.9103C71.5976 30.9103 70.5759 31.6373 69.3774 33.0716C68.1789 34.5255 67.334 35.9402 66.8232 37.3745C66.5874 37.9836 66.5088 38.4552 66.5874 38.7499C66.6463 39.0642 66.9017 39.2018 67.334 39.2018C67.7466 39.2018 68.2182 39.0053 68.7487 38.6123C69.2792 38.2194 69.7114 37.7282 70.0651 37.1191L73.0909 31.8141Z" fill="white"/>
<path d="M17.0939 52.3856C16.7206 53.3877 16.7009 54.154 17.0153 54.7041C17.3297 55.2543 17.9584 55.5293 18.9212 55.5293C20.0215 55.5293 21.2396 55.2346 22.5954 54.6255C23.9511 54.0164 25.0317 53.2698 25.8569 52.3463L26.466 52.6607C25.0514 54.429 23.3027 55.8437 21.22 56.9244C19.1373 58.005 17.1135 58.5355 15.188 58.5355C13.4001 58.5355 12.1819 58.0247 11.5138 57.0422C10.8655 56.0402 10.8262 54.7041 11.4352 53.034C12.1033 51.2264 13.2625 49.517 14.9523 47.9255C16.642 46.334 18.371 45.332 20.159 44.939C19.6874 44.5068 19.4124 43.9566 19.3338 43.3082C19.2552 42.6598 19.3534 41.9525 19.6285 41.1862C20.2572 39.4376 21.4951 37.8854 23.342 36.51C25.1693 35.1543 27.0358 34.4666 28.9024 34.4666C30.2385 34.4666 31.1816 34.8202 31.7514 35.5276C32.3212 36.2349 32.3801 37.178 31.9479 38.3766C31.6138 39.2804 31.103 40.0663 30.435 40.695C29.7669 41.3238 29.0989 41.6381 28.4505 41.6381C28.1558 41.6381 27.92 41.5595 27.7432 41.422C27.5467 41.2845 27.4091 41.0683 27.2913 40.7933C27.7039 40.6754 28.1558 40.3217 28.6273 39.7716C29.0989 39.2214 29.4329 38.6516 29.649 38.0622C29.8455 37.512 29.8455 37.0994 29.649 36.7851C29.4525 36.4707 29.0989 36.3135 28.5684 36.3135C27.6842 36.3135 26.7804 36.7654 25.8373 37.6496C24.8942 38.5337 24.2065 39.5554 23.7939 40.7343C23.4206 41.7757 23.3616 42.6598 23.6367 43.4065C23.9118 44.1531 24.5209 44.6443 25.405 44.9194C23.735 45.273 22.0845 46.2161 20.4341 47.7094C18.8033 49.2223 17.6833 50.7745 17.0939 52.3856Z" fill="white"/>
<path d="M35.4452 52.759C35.347 53.0144 35.2684 53.2305 35.1701 53.4074C35.0916 53.6038 34.9933 53.7807 34.8754 53.9379C35.3863 53.6824 35.8775 53.427 36.3883 53.1519C36.8795 52.8769 37.3118 52.6214 37.7048 52.366H39.0212C38.0977 53.1126 37.135 53.8003 36.1329 54.4487C35.1309 55.0774 34.0109 55.6865 32.832 56.276C32.0461 56.8851 31.1619 57.337 30.1795 57.671C29.1775 57.9854 28.2147 58.1622 27.252 58.1622C25.857 58.1622 24.8942 57.7692 24.3441 57.0226C23.7939 56.2563 23.735 55.3132 24.1476 54.1736C24.3833 53.5252 24.7567 52.9358 25.2675 52.4053C25.7784 51.8748 26.3089 51.5015 26.8787 51.2657C28.0575 49.9886 29.1971 48.6329 30.3367 47.1986C31.4763 45.7446 32.7338 44.0156 34.0895 42.0311L38.9426 41.4024C38.4317 42.9546 37.9798 44.3889 37.6065 45.6857C37.2136 46.9824 36.8206 48.3774 36.3883 49.91C36.1329 50.7745 35.9561 51.4033 35.8382 51.7569C35.681 52.0713 35.5828 52.425 35.4452 52.759ZM33.0089 45.3713C32.4194 46.2162 31.771 47.12 31.044 48.0434C30.3171 48.9669 29.4133 50.0475 28.313 51.2854C28.5094 51.3836 28.6273 51.5408 28.6863 51.7176C28.7452 51.9141 28.7256 52.1302 28.6273 52.366C28.4898 52.759 28.2147 53.1126 27.8414 53.427C27.4681 53.7414 27.0751 53.8986 26.7018 53.8986C26.4857 53.8986 26.3285 53.8593 26.2106 53.8003C26.0927 53.7217 26.0141 53.6235 26.0141 53.5056C25.7391 54.2719 25.6801 54.822 25.857 55.1757C26.0338 55.5294 26.4464 55.6865 27.1144 55.6865C27.9789 55.6865 28.7256 55.4311 29.3936 54.9399C30.0616 54.4487 30.5528 53.7217 30.9065 52.7786C31.0048 52.4839 31.103 52.1892 31.2012 51.8945C31.2798 51.5997 31.437 51.0889 31.6335 50.3816C31.8889 49.3991 32.1247 48.5346 32.3212 47.788C32.5373 47.0414 32.7731 46.2358 33.0089 45.3713Z" fill="white"/>
<path d="M35.1308 64.6461L30.0027 65.766L44.169 41.1862H48.6684L47.3127 43.5244C48.0003 43.0921 48.6684 42.7581 49.3561 42.5223C50.0437 42.2865 50.7511 42.1687 51.4584 42.1687C52.7159 42.1687 53.5018 42.5813 53.8555 43.4261C54.1895 44.2514 54.0716 45.4892 53.4822 47.12C52.3229 50.303 50.6921 52.9358 48.5505 55.0185C46.4285 57.1012 44.169 58.1426 41.7719 58.1426C41.1039 58.1426 40.593 58.0443 40.2 57.8675C39.8267 57.6906 39.591 57.3959 39.532 57.0226L35.1308 64.6461ZM40.8681 54.7238C40.8681 54.9596 40.9467 55.1364 41.1235 55.2543C41.2807 55.3722 41.5165 55.4311 41.8112 55.4311C43.1276 55.4311 44.4833 54.5862 45.898 52.8965C47.3127 51.2068 48.4326 49.2616 49.2382 47.0217C49.5525 46.1572 49.6508 45.5285 49.5722 45.0766C49.4936 44.6443 49.1596 44.4282 48.6291 44.4282C48.2558 44.4282 47.8235 44.5657 47.3127 44.8604C46.8215 45.1355 46.3499 45.5088 45.9176 45.9607L40.8681 54.7238Z" fill="white"/>
<path d="M66.8625 45.0569C66.2338 46.786 64.9763 48.2989 63.0901 49.576C61.2039 50.8531 59.2587 51.5604 57.2743 51.6587C57.1171 52.0123 57.0188 52.2874 56.9403 52.4642C56.8617 52.6411 56.8027 52.7983 56.7634 52.9162C56.4294 53.8789 56.3312 54.5469 56.508 54.9399C56.6848 55.3329 57.2153 55.5294 58.0602 55.5294C59.0426 55.5294 60.025 55.3132 61.0074 54.8613C61.9898 54.4094 63.2473 53.5842 64.7405 52.3857H65.8015C63.876 54.3505 62.0488 55.7848 60.2804 56.7475C58.5121 57.6906 56.8027 58.1622 55.113 58.1622C53.5018 58.1622 52.4408 57.7496 51.93 56.9047C51.4191 56.0599 51.4584 54.822 52.0479 53.1912C52.4801 51.9927 53.1285 50.7549 53.9734 49.4188C54.8379 48.0827 55.7614 46.9038 56.7634 45.8625C57.9816 44.605 59.2587 43.6619 60.5555 43.0332C61.8523 42.4044 63.1687 42.0901 64.5048 42.0901C65.6444 42.0901 66.4303 42.3455 66.8232 42.817C67.2359 43.2886 67.2359 44.0549 66.8625 45.0569ZM64.1708 43.7208C63.4634 43.7208 62.5203 44.3496 61.3414 45.6071C60.1625 46.8645 59.0819 48.3774 58.0798 50.1458C59.3177 50.0672 60.5752 49.4974 61.8523 48.4757C63.1491 47.454 64.0136 46.2751 64.4851 44.998C64.6423 44.5657 64.7012 44.2317 64.6423 44.0352C64.603 43.8387 64.4458 43.7208 64.1708 43.7208Z" fill="white"/>
<path d="M66.0569 57.9657H61.5575L70.5563 42.3455H75.0557L73.9358 44.2906C75.1343 43.5244 76.0381 43.0135 76.6669 42.7385C77.2956 42.483 77.8851 42.3455 78.4156 42.3455C79.0639 42.3455 79.4962 42.5813 79.732 43.0135C79.9678 43.4654 79.9481 44.0156 79.7123 44.6836C79.4766 45.332 79.0836 45.8821 78.4941 46.3144C77.9244 46.7467 77.2956 46.9628 76.6276 46.9628C76.2739 46.9628 76.0185 46.8842 75.881 46.7074C75.7434 46.5502 75.7238 46.1965 75.8417 45.6857C75.9006 45.3516 75.9006 45.1355 75.8613 45.0373C75.8024 44.939 75.7238 44.8997 75.5666 44.8997C75.2129 44.8997 74.8593 44.9783 74.4859 45.1159C74.1126 45.2534 73.5821 45.5874 72.8551 46.0786L66.0569 57.9657Z" fill="white"/>
<path d="M89.2613 43.7798L89.1827 43.9959L90.1258 42.3455H94.6252L88.5147 52.9751C88.3968 53.1716 88.3182 53.3287 88.2396 53.4859C88.161 53.6431 88.1021 53.8003 88.0431 53.9771C87.8663 54.429 87.8467 54.7631 87.9842 54.9988C88.1021 55.215 88.3968 55.3329 88.8291 55.3329C89.3792 55.3329 89.949 55.0774 90.5777 54.5666C91.2065 54.0557 91.8156 53.3287 92.4247 52.4053H93.7411C92.3657 54.3112 90.9903 55.7651 89.5757 56.7279C88.161 57.6906 86.7464 58.1818 85.3513 58.1818C84.4475 58.1818 83.8384 57.9264 83.4848 57.4352C83.1311 56.944 83.0918 56.2367 83.3276 55.3132C82.3255 56.276 81.3628 56.9833 80.4 57.4745C79.4373 57.946 78.5138 58.2015 77.6296 58.2015C76.3329 58.2015 75.488 57.7692 75.0557 56.885C74.6431 56.0009 74.7217 54.7631 75.3112 53.1716C75.7434 52.0123 76.3525 50.7941 77.1777 49.517C77.9833 48.2399 78.9068 47.1003 79.9088 46.0393C81.127 44.8015 82.3648 43.8584 83.6223 43.21C84.8798 42.5616 86.1176 42.2276 87.3358 42.2276C88.1414 42.2276 88.7112 42.3651 89.0452 42.6598C89.3596 42.8956 89.4382 43.2886 89.2613 43.7798ZM88.4164 45.3123C88.5343 44.998 88.5147 44.7229 88.3772 44.4871C88.2396 44.2513 87.9645 44.1334 87.5716 44.1334C86.432 44.1334 85.0566 45.0962 83.4848 47.0021C81.8933 48.9276 80.7733 50.8138 80.0857 52.6804C79.7909 53.5056 79.673 54.095 79.7713 54.5076C79.8499 54.9202 80.1839 55.1167 80.7733 55.1167C81.3235 55.1167 81.9326 54.8613 82.6399 54.3308C83.3472 53.8003 83.917 53.1519 84.3689 52.366L88.4164 45.3123Z" fill="white"/>
<path d="M99.1836 54.6255C99.3212 54.2522 99.5373 53.7806 99.832 53.2305C100.127 52.6804 100.638 51.7765 101.384 50.5387C102.111 49.3598 102.602 48.4953 102.877 47.9845C103.153 47.454 103.349 47.0217 103.487 46.668C103.683 46.1572 103.722 45.7446 103.644 45.4892C103.546 45.2141 103.329 45.0765 102.956 45.0765C102.465 45.0765 101.895 45.332 101.286 45.8428C100.677 46.3537 100.068 47.061 99.4784 47.9452L93.7018 57.9657H89.2024L98.2012 42.3455H102.701L101.758 43.9763C102.485 43.3868 103.211 42.9546 103.919 42.6598C104.626 42.3651 105.333 42.2276 106.041 42.2276C107.141 42.2276 107.888 42.5223 108.281 43.1314C108.654 43.7405 108.654 44.605 108.222 45.7446C108.045 46.2161 107.789 46.7859 107.436 47.454C107.082 48.1024 106.493 49.1044 105.668 50.4601C105.019 51.5211 104.567 52.2677 104.312 52.7C104.076 53.1323 103.899 53.5056 103.801 53.8003C103.644 54.2326 103.624 54.5666 103.762 54.7827C103.88 54.9988 104.155 55.1167 104.587 55.1167C105.098 55.1167 105.628 54.9399 106.119 54.5862C106.63 54.2326 107.318 53.5056 108.202 52.366H109.519C108.143 54.2915 106.807 55.7455 105.51 56.7082C104.214 57.671 102.897 58.1425 101.6 58.1425C100.421 58.1425 99.6355 57.8282 99.2229 57.1994C98.8103 56.5707 98.7907 55.7062 99.1836 54.6255Z" fill="white"/>
<path d="M113.409 55.6276C113.861 55.6669 114.195 55.7062 114.411 55.7258C114.647 55.7455 114.863 55.7651 115.04 55.7651C115.491 55.7651 115.865 55.7062 116.14 55.608C116.415 55.5097 116.611 55.3329 116.729 55.1364C116.552 55.1168 116.435 55.0382 116.356 54.9399C116.297 54.822 116.297 54.6845 116.356 54.488C116.493 54.1344 116.769 53.82 117.201 53.5449C117.633 53.2698 118.085 53.1323 118.596 53.1323C119.028 53.1323 119.323 53.2698 119.46 53.5449C119.598 53.82 119.598 54.1736 119.421 54.6256C119.107 55.4901 118.458 56.2563 117.476 56.944C116.493 57.6317 115.452 57.9854 114.411 57.9854H106.119L119.166 44.0549H117.417C116.769 44.0549 116.317 44.0942 116.022 44.1924C115.747 44.271 115.57 44.4085 115.511 44.5657C115.668 44.7229 115.708 44.9587 115.59 45.2534C115.413 45.7643 115.098 46.1572 114.666 46.4519C114.234 46.7467 113.782 46.9039 113.291 46.9039C112.878 46.9039 112.583 46.786 112.407 46.5305C112.23 46.2751 112.21 45.9411 112.367 45.5285C112.642 44.7622 113.271 44.0352 114.234 43.3672C115.197 42.6992 116.159 42.3651 117.142 42.3651H125.178L112.721 55.5883C112.78 55.5883 112.859 55.5883 112.957 55.608C113.075 55.5883 113.212 55.608 113.409 55.6276Z" fill="white"/>
<path d="M134.845 43.7798L134.766 43.9959L135.709 42.3455H140.209L134.098 52.9751C134 53.1716 133.902 53.3287 133.823 53.4859C133.745 53.6431 133.666 53.8003 133.607 53.9771C133.43 54.429 133.43 54.7631 133.548 54.9988C133.666 55.215 133.961 55.3329 134.393 55.3329C134.923 55.3329 135.513 55.0774 136.142 54.5666C136.77 54.0557 137.379 53.3287 137.989 52.4053H139.305C137.949 54.3112 136.554 55.7651 135.14 56.7279C133.725 57.6906 132.31 58.1818 130.915 58.1818C130.011 58.1818 129.402 57.9264 129.049 57.4352C128.695 56.944 128.656 56.2367 128.911 55.3132C127.909 56.276 126.946 56.9833 125.984 57.4745C125.021 57.946 124.097 58.2015 123.213 58.2015C121.916 58.2015 121.072 57.7692 120.659 56.885C120.227 56.0009 120.325 54.7631 120.895 53.1716C121.327 52.0123 121.936 50.7941 122.761 49.517C123.586 48.2399 124.49 47.1003 125.492 46.0393C126.711 44.8015 127.948 43.8584 129.206 43.21C130.463 42.5616 131.701 42.2276 132.9 42.2276C133.705 42.2276 134.295 42.3651 134.629 42.6598C134.943 42.8956 135.022 43.2886 134.845 43.7798ZM134 45.3123C134.118 44.998 134.098 44.7229 133.961 44.4871C133.823 44.2513 133.548 44.1334 133.155 44.1334C132.016 44.1334 130.64 45.0962 129.068 47.0021C127.477 48.9276 126.357 50.8138 125.669 52.6804C125.374 53.5056 125.257 54.095 125.355 54.5076C125.433 54.9202 125.767 55.1167 126.357 55.1167C126.907 55.1167 127.516 54.8613 128.223 54.3308C128.931 53.8003 129.501 53.1519 129.952 52.366L134 45.3123Z" fill="white"/>
<path d="M61.5771 36.1367C61.1841 36.4117 60.7322 36.6475 60.2607 36.8833C59.4551 37.2566 58.5906 37.5317 57.6475 37.6889C56.8026 37.8264 55.5844 37.905 54.0126 37.9246L54.0322 37.905C54.0322 37.905 61.8325 24.0334 63.9742 20.654C63.7384 20.7129 61.9897 21.1648 59.9856 21.7543L52.5783 34.4273L50.4366 38.1408L49.0613 40.5182L49.1399 40.4789C50.2795 40.4789 51.8317 40.6557 53.7768 41.0487C55.7613 41.422 57.2152 41.5792 58.1191 41.5399C58.9836 41.5006 59.7695 41.3238 60.4768 41.0094C61.0466 40.6557 63.1883 39.0839 61.6754 36.0581C61.6557 36.0974 61.6164 36.117 61.5771 36.1367Z" fill="white"/>
<path d="M93.6232 25.6053L114.47 24.2692L93.6232 22.9332L99.9106 15.7813L92.7587 22.0686L91.4226 1.22202L90.0865 22.0686L82.9346 15.7813L89.222 22.9332L68.3754 24.2692L89.222 25.6053L82.9346 32.7572L90.0865 26.4698L91.4226 47.3164L92.7587 26.4698L99.9106 32.7572L93.6232 25.6053Z" fill="white"/>
<defs>
<linearGradient id="paint0_linear_119_6" x1="75.501" y1="16.8319" x2="75.501" y2="67.7388" gradientUnits="userSpaceOnUse">
<stop offset="0.3832" stop-color="#00762C"/>
<stop offset="0.9951" stop-color="#7EB625"/>
</linearGradient>
<radialGradient id="paint1_radial_119_6" cx="0" cy="0" r="1" gradientUnits="userSpaceOnUse" gradientTransform="translate(77.1786 77.7242) rotate(-3.93375) scale(45.1195 49.0858)">
<stop stop-color="#E34532"/>
<stop offset="1" stop-color="#E12D29"/>
</radialGradient>
</defs>
</svg>
